<svg width="200" height="95" viewBox="0 0 200 95" fill="none" xmlns="http://www.w3.org/2000/svg">
<path d="M143.595 23.6079C143.742 23.8115 143.877 24.0235 144 24.2428C143.674 22.8397 143.173 21.4851 142.509 20.2122C137.038 9.97779 121.838 13.041 106.674 24.6324C102.678 27.6796 99.0899 31.2467 96 35.243C97.886 36.2876 99.5943 37.7621 101.243 39.0183C102.253 39.7702 103.323 40.4331 104.443 41C105.404 39.8647 106.401 38.7429 107.448 37.6412C120.956 23.4366 138.148 16.2084 143.595 23.6079Z" fill="url(#paint0_linear_3285_2187)"/>
<path d="M144.508 32L144.77 31.9269C145.218 29.1403 145.038 26.7281 144 25C144.553 27.293 144.724 29.6555 144.508 32Z" fill="url(#paint1_linear_3285_2187)"/>
<g style="mix-blend-mode:soft-light">
<g style="mix-blend-mode:soft-light">
<path d="M144.049 24.456C143.925 24.2408 143.789 24.033 143.641 23.8333L143.578 23.7642C143.7 24.1397 143.809 24.5318 143.908 24.9271C144.072 25.2096 144.217 25.5036 144.339 25.8068C144.263 25.3455 144.161 24.8975 144.049 24.456Z" fill="#E7E6E6"/>
</g>
<g style="mix-blend-mode:soft-light">
<path d="M106.575 25.5103C121.704 14.0553 136.905 10.965 142.423 20.9704C142.905 21.8549 143.3 22.7839 143.602 23.7444L143.665 23.8136C143.812 24.0133 143.947 24.2212 144.07 24.4363C143.74 23.0642 143.232 21.7409 142.561 20.4993C137.046 10.4939 121.842 13.5808 106.717 25.0392C101.165 29.2041 96.4391 34.3682 92.7812 40.2664L92.8669 40.3784C96.4948 34.6304 101.14 29.592 106.575 25.5103Z" fill="#E7E6E6"/>
</g>
</g>
<path d="M102.259 35.5821C100.858 34.3979 99.4417 33.2732 98.1334 32C95.5049 35.1135 92.6028 37.9837 89.4623 40.5759C75.9527 51.7905 61.3978 55.488 56.9537 48.8648C56.8847 48.7625 56.8222 48.6537 56.7598 48.535C55.917 47.2817 55.2831 45.8992 54.8829 44.4416C54.1442 41.6465 54.1931 38.7005 55.0242 35.9317C52.9666 40.1174 52.3946 44.2602 53.693 47.806C57.1509 57.1636 72.4651 58.7402 87.9075 51.3254C95.1028 47.872 101.056 43.0794 105 37.9866C104.086 37.1818 103.202 36.3671 102.259 35.5821Z" fill="url(#paint2_linear_3285_2187)"/>
<path d="M69 21C68.2854 21.058 67.5799 21.2011 66.8981 21.4263L66.9403 21.5287L66.8169 21.4692C63.8703 23.6038 63.7729 23.6171 66.9371 21.5287C65.0791 22.704 63.3382 24.0608 61.7392 25.5799C59.1342 28.1445 56.9231 31.093 55.1801 34.3265V34.3265C54.9982 34.657 54.8195 35.0138 54.6538 35.3608C53.8324 38.1346 53.784 41.0859 54.5141 43.8861C54.9114 45.3515 55.5412 46.7411 56.3789 48C55.2395 45.9426 54.6273 43.6268 54.5986 41.2657C54.6538 35.3608 59.5691 27.5526 62.9022 24.6348C64.7897 22.9826 66.5635 22.3515 68.1326 22.2127C68.3512 21.7609 68.6446 21.3507 69 21V21Z" fill="url(#paint3_linear_3285_2187)"/>
<path style="mix-blend-mode:multiply" opacity="0.71" d="M82 45.2473C88.4921 41.3929 94.3401 36.1156 96.1646 33.8672L97.2168 32.7719C98.0397 32.0332 99.0616 30.5236 99.871 29.8137C101.938 28.7923 105.786 26.2291 109.817 23.6788C111.55 22.5835 113.294 21.5075 114.278 21L119 28.455C116.049 30.2794 108.491 36.3533 105.824 38.5182C104.98 39.1991 105.985 37.7024 105.196 38.409L99.5439 43.227C95.6575 46.3618 91.3402 48.977 86.7114 51L82 45.2473Z" fill="url(#paint4_linear_3285_2187)"/>
<path d="M141.707 19.0606C152.953 40.7065 127.365 50.8737 113.939 35.9323C108.284 28.7026 107.659 25.0927 104.128 21.4092C89.0453 6.49129 67.3012 15.7619 56 34.4569C57.4994 32.6269 67.0546 21.5397 80.9434 23.3062C91.679 24.6711 93.4382 38.6556 109.32 46.9092C127.342 56.2768 159.746 43.5971 141.707 19.0606Z" fill="url(#paint5_linear_3285_2187)"/>
<g style="mix-blend-mode:darken" opacity="0.57">
<path d="M109.55 46.2571C93.5218 37.8447 91.7501 23.5876 80.9172 22.1964C67.5462 20.4641 58.1599 30.694 56 33.2412C56 33.2412 56 33.2685 56 33.2822C58.8434 30.0666 67.8813 21.1802 80.4262 22.7931C91.2591 24.1844 93.0341 38.4414 109.059 46.8538C120.32 52.7633 137.142 50.0524 144 41.1967C136.87 49.5784 120.556 52.0302 109.55 46.2571Z" fill="#1887B2"/>
</g>
<g style="mix-blend-mode:soft-light">
<path d="M142.443 19.767C142.259 19.5124 142.082 19.2579 141.891 19C152.89 39.9494 128.603 50.0092 115 36.5477C128.442 50.4192 152.972 40.5908 142.443 19.767Z" fill="white"/>
</g>
<path d="M66.4491 63.2414C66.3595 63.2034 66.2668 63.1739 66.172 63.1534C65.4223 62.9535 63.5643 62.8891 62.9645 63.3973L62.9319 63.4278C62.8318 63.5232 62.7509 63.6384 62.6939 63.7665C60.9519 66.1696 59.3412 68.6726 57.8696 71.2636L53.381 63.7835L53.3647 63.7462C53.3051 63.617 53.2208 63.5017 53.117 63.4074L53.0876 63.3803C52.5661 62.9298 51.0047 62.9433 50.1539 63.0958C49.9521 63.1178 49.7538 63.1668 49.5639 63.2414C49.3987 63.3139 49.2573 63.4348 49.1571 63.5895C49.057 63.7441 49.0024 63.9257 49 64.1121V79.9024C49 80.2174 49.1402 80.7696 50.079 80.9187C50.3912 80.9625 50.706 80.9829 51.021 80.9797C51.6729 80.9797 53.0453 80.9797 53.0453 79.9024V70.8063C53.3386 71.2873 53.896 72.2291 54.5121 73.4114C55.3683 75.0579 55.9431 76.1341 56.2365 76.64L56.4093 76.9787C56.5632 77.2215 56.7588 77.4328 56.9862 77.6021C57.4769 77.9038 58.0603 77.9984 58.6161 77.8663C58.7535 77.8279 58.8821 77.7611 58.9942 77.6698C59.2435 77.4933 59.4637 77.2759 59.6461 77.0262L60.0373 76.3114C60.2264 75.9703 60.6697 75.1166 61.3672 73.7502C62.0648 72.3838 62.5951 71.389 62.958 70.7656C62.958 70.7656 62.958 72.4764 62.958 72.5713V79.9227C62.958 81 64.3238 81 64.979 81C65.6342 81 67 81 67 79.9227V64.1256C67.0012 63.9385 66.9497 63.755 66.8518 63.5979C66.754 63.4407 66.6139 63.3168 66.4491 63.2414V63.2414Z" fill="#2D9DD3"/>
<path d="M71.4983 70C70.1802 70 70 70.2171 70 70.4525V79.5506C70 79.7829 70.1802 80 71.4983 80C72.8165 80 73 79.7829 73 79.5506V70.4463C73 70.2171 72.8065 70 71.4983 70Z" fill="#2D9DD3"/>
<path d="M71.9984 81C71.3537 81 70 81 70 79.9453V70.0547C70 69 71.3505 69 71.9984 69C72.6462 69 74 69 74 70.0547V79.9254C74 81 72.6495 81 71.9984 81ZM71.0991 79.796C71.696 79.8933 72.304 79.8933 72.9009 79.796V70.2106C72.304 70.1133 71.696 70.1133 71.0991 70.2106V79.796Z" fill="#2D9DD3"/>
<path d="M86.2745 64H78.2689C77.4291 64.0291 77 64.1098 77 64.4714V79.5253C77 79.7707 77.1667 80 78.3801 80C79.5934 80 79.7632 79.7707 79.7632 79.5253V73.3061H85.4841C85.9256 73.3061 86.2096 72.7831 86.2096 71.9726C86.2096 71.1621 85.9256 70.6357 85.4841 70.6357H79.7632V66.6801H86.2745C86.716 66.6801 87 66.157 87 65.3465C87 64.536 86.716 64 86.2745 64Z" fill="#2D9DD3"/>
<path d="M78.0704 81C77.4003 81 76 81 76 79.92V64.0732C76 63.0543 77.1625 63.0238 77.9296 63H86.6399C87.2663 63 88 63.5196 88 64.9868C88 66.454 87.2663 66.9702 86.6399 66.9702H80.1373V69.9792H85.7755C86.402 69.9792 87.1357 70.4989 87.1357 71.966C87.1357 73.4332 86.402 73.9494 85.7755 73.9494H80.1373V79.9098C80.1373 81 78.7404 81 78.0704 81ZM77.1424 79.7672C77.756 79.8668 78.3814 79.8668 78.995 79.7672V72.7879H85.7755C85.8358 72.7675 85.9933 72.523 85.9933 71.9626C85.9933 71.4023 85.8359 71.1577 85.7789 71.134H78.995V65.8087H86.6332C86.67 65.8087 86.8509 65.5879 86.8509 64.9834C86.8509 64.3789 86.67 64.1683 86.6365 64.1547H77.9464C77.6768 64.1567 77.4078 64.1817 77.1424 64.2294V79.7672Z" fill="#2D9DD3"/>
<path d="M108.621 64C107.406 64 107.24 64.2484 107.24 64.4904V74.4206L100.695 64.2807L100.665 64.242C100.356 63.9193 98.6476 63.9742 98.2591 64.1452C98.1864 64.1664 98.1221 64.2113 98.0755 64.2734C98.0289 64.3355 98.0025 64.4115 98 64.4904V79.4922C98 79.6503 98 79.9825 99.3786 79.9825C100.757 79.9825 100.76 79.6599 100.76 79.4922V69.5813L107.308 79.6986C107.462 79.9212 108.029 79.9987 108.581 79.9987C108.945 80.0079 109.309 79.9689 109.664 79.8825C109.941 79.7922 110 79.6244 110 79.5018V64.5001C110 64.2484 109.837 64 108.621 64Z" fill="#2D9DD3"/>
<path d="M108.921 80.9998C107.633 80.9998 107.266 80.6806 107.094 80.4429L101.088 71.3428V79.8996C101.088 80.993 99.708 80.993 99.0426 80.993C98.3772 80.993 97 80.993 97 79.8996V64.1103C97.0018 63.9127 97.0628 63.7203 97.1747 63.5594C97.2866 63.3984 97.444 63.2766 97.6257 63.2105C98.0494 63.0306 100.205 62.8099 100.82 63.438L100.923 63.5671L106.912 72.6467V64.0968C106.912 63 108.345 63 108.957 63C109.57 63 111 63 111 64.0968V79.886C110.993 80.1072 110.916 80.32 110.78 80.4921C110.644 80.6643 110.458 80.7864 110.249 80.8402C109.814 80.9504 109.368 81.0041 108.921 80.9998ZM107.984 79.7264C108.287 79.8208 108.605 79.8599 108.921 79.8419C109.242 79.8474 109.562 79.8201 109.878 79.7604V64.2394C109.272 64.1304 108.653 64.1304 108.047 64.2394V76.426L100.029 64.2631C99.4019 64.1405 98.7584 64.1336 98.1289 64.2428V79.7434C98.7345 79.8524 99.354 79.8524 99.9596 79.7434V67.5602L107.984 79.7264Z" fill="#2D9DD3"/>
<path d="M115.5 64C114.183 64 114 64.2292 114 64.4777V79.5255C114 79.7708 114.183 80 115.5 80C116.817 80 117 79.7708 117 79.5255V64.4777C116.997 64.2292 116.833 64 115.5 64Z" fill="#2D9DD3"/>
<path d="M116 81C115.355 81 114 81 114 79.9204V64.0796C114 63 115.352 63 116 63C116.648 63 118 63 118 64.0796V79.9068C117.997 81 116.645 81 116 81ZM115.097 79.7676C115.695 79.8672 116.305 79.8672 116.903 79.7676V64.2324C116.305 64.1328 115.695 64.1328 115.097 64.2324V79.7676Z" fill="#2D9DD3"/>
<path d="M92.5 64C91.1667 64 91 64.2292 91 64.4777V79.5255C91 79.7708 91.18 80 92.5 80C93.82 80 94 79.7708 94 79.5255V64.4777C94 64.2292 93.8167 64 92.5 64Z" fill="#2D9DD3"/>
<path d="M92 81C91.3548 81 90 81 90 79.9204V64.0796C90 63 91.3516 63 92 63C92.6484 63 94 63 94 64.0796V79.9068C94 81 92.6484 81 92 81ZM91.0968 79.7676C91.6952 79.8672 92.3048 79.8672 92.9032 79.7676V64.2324C92.3048 64.1328 91.6952 64.1328 91.0968 64.2324V79.7676Z" fill="#2D9DD3"/>
<path d="M132.548 64H121.452C121.22 64 121 64.1744 121 65.4434C121 66.7124 121.22 66.8868 121.452 66.8868H125.636V79.5253C125.636 79.7707 125.801 80 127.002 80C128.202 80 128.367 79.7707 128.367 79.5253V66.8868H132.548C132.783 66.8868 133 66.7124 133 65.4434C133 64.1744 132.783 64 132.548 64Z" fill="#2D9DD3"/>
<path d="M127.007 81C126.351 81 124.979 81 124.979 79.9202V67.1935H121.043C120 67.1935 120 65.7776 120 65.0985C120 64.4194 120 63 121.043 63H132.954C134 63 134 64.4194 134 65.0985C134 65.7776 134 67.1935 132.954 67.1935H129.017V79.9066C129.03 81 127.663 81 127.007 81ZM126.098 79.7674C126.7 79.867 127.313 79.867 127.915 79.7674V66.0391H132.826C132.922 65.416 132.922 64.781 132.826 64.1579H121.197C121.101 64.781 121.101 65.416 121.197 66.0391H126.098V79.7674Z" fill="#2D9DD3"/>
<path d="M149.645 64.1338C149.105 63.9465 147.06 63.8981 146.676 64.376L142.993 70.0618L139.301 64.3824C138.943 63.911 136.912 63.9465 136.371 64.1306C136.065 64.2307 136 64.4018 136 64.5309V64.6084L141.535 73.1679V79.4543C141.535 79.5899 141.535 80 143 80C144.465 80 144.465 79.5899 144.465 79.4543V73.1679L150 64.6117V64.5309C150 64.405 149.938 64.2371 149.645 64.1338Z" fill="#2D9DD3"/>
<path d="M143.498 81C143.001 81 141.492 81 141.492 79.8482V73.3927L136 64.3856V64.1342C136.004 63.9085 136.079 63.6907 136.214 63.5149C136.348 63.339 136.534 63.215 136.743 63.1624C137.273 62.9756 139.667 62.7785 140.274 63.6313L140.297 63.6653L143.498 68.884L146.729 63.6109C147.375 62.7717 149.785 62.9858 150.283 63.1726C150.485 63.2299 150.664 63.3545 150.794 63.5278C150.923 63.7012 150.995 63.9139 151 64.1342V64.389L145.508 73.3961V79.8516C145.501 81 143.993 81 143.498 81ZM142.594 79.7361C143.188 79.8765 143.805 79.8765 144.4 79.7361V73.0631L149.795 64.2293C149.233 64.1036 147.892 64.141 147.588 64.3448L143.508 71.0279L139.408 64.3516C139.105 64.1511 137.793 64.1138 137.215 64.2361L142.594 73.0699V79.7361Z" fill="#2D9DD3"/>
<path d="M72.137 64H70.863C69.8341 64 69 64.6627 69 65.4802V66.5198C69 67.3373 69.8341 68 70.863 68H72.137C73.1659 68 74 67.3373 74 66.5198V65.4802C74 64.6627 73.1659 64 72.137 64Z" fill="#2D9DD3"/>
<defs>
<linearGradient id="paint0_linear_3285_2187" x1="92.8228" y1="27.2427" x2="145.102" y2="27.7792" gradientUnits="userSpaceOnUse">
<stop offset="0.01" stop-color="#FFA220"/>
<stop offset="0.04" stop-color="#FFA61C"/>
<stop offset="0.34" stop-color="#FFC000"/>
<stop offset="0.61" stop-color="#FDC200"/>
<stop offset="0.74" stop-color="#F6C900"/>
<stop offset="0.75" stop-color="#F5CB00"/>
<stop offset="0.78" stop-color="#F3C200"/>
<stop offset="0.84" stop-color="#F0B100"/>
<stop offset="0.89" stop-color="#EFAB00"/>
<stop offset="1" stop-color="#B74600"/>
</linearGradient>
<linearGradient id="paint1_linear_3285_2187" x1="96.6677" y1="28.0238" x2="145.014" y2="28.5509" gradientUnits="userSpaceOnUse">
<stop offset="0.01" stop-color="#FFA220"/>
<stop offset="0.04" stop-color="#FFA61C"/>
<stop offset="0.34" stop-color="#FFC000"/>
<stop offset="0.61" stop-color="#FDC200"/>
<stop offset="0.74" stop-color="#F6C900"/>
<stop offset="0.75" stop-color="#F5CB00"/>
<stop offset="0.78" stop-color="#F3C200"/>
<stop offset="0.84" stop-color="#F0B100"/>
<stop offset="0.89" stop-color="#EFAB00"/>
<stop offset="1" stop-color="#B74600"/>
</linearGradient>
<linearGradient id="paint2_linear_3285_2187" x1="54.9399" y1="37.7991" x2="103.701" y2="48.9753" gradientUnits="userSpaceOnUse">
<stop offset="0.01" stop-color="#C59252"/>
<stop offset="0.22" stop-color="#EBA31C"/>
<stop offset="0.34" stop-color="#FFAC00"/>
<stop offset="0.51" stop-color="#FDAC03"/>
<stop offset="0.63" stop-color="#F6AB0D"/>
<stop offset="0.75" stop-color="#E9AA1E"/>
<stop offset="0.78" stop-color="#E4A925"/>
<stop offset="0.8" stop-color="#E7AC21"/>
<stop offset="0.86" stop-color="#F4B70F"/>
<stop offset="0.93" stop-color="#FCBE04"/>
<stop offset="1" stop-color="#FFC000"/>
</linearGradient>
<linearGradient id="paint3_linear_3285_2187" x1="64.6382" y1="23.9154" x2="53.5907" y2="48.2043" gradientUnits="userSpaceOnUse">
<stop offset="0.01" stop-color="#C59252"/>
<stop offset="0.22" stop-color="#EBA31C"/>
<stop offset="0.34" stop-color="#FFAC00"/>
<stop offset="0.51" stop-color="#FDAC03"/>
<stop offset="0.63" stop-color="#F6AB0D"/>
<stop offset="0.75" stop-color="#E9AA1E"/>
<stop offset="0.78" stop-color="#E4A925"/>
<stop offset="0.8" stop-color="#E7AC21"/>
<stop offset="0.86" stop-color="#F4B70F"/>
<stop offset="0.93" stop-color="#FCBE04"/>
<stop offset="1" stop-color="#FFC000"/>
</linearGradient>
<linearGradient id="paint4_linear_3285_2187" x1="108.58" y1="17.6281" x2="74.5009" y2="38.2856" gradientUnits="userSpaceOnUse">
<stop offset="0.11" stop-color="white"/>
<stop offset="0.61" stop-color="#878787"/>
<stop offset="0.95" stop-color="white"/>
</linearGradient>
<linearGradient id="paint5_linear_3285_2187" x1="155.672" y1="53.4732" x2="62.0082" y2="10.9394" gradientUnits="userSpaceOnUse">
<stop offset="0.01" stop-color="#001F2A"/>
<stop offset="0.16" stop-color="#004B5D"/>
<stop offset="0.2" stop-color="#00576E"/>
<stop offset="0.31" stop-color="#00799F"/>
<stop offset="0.42" stop-color="#0094C7"/>
<stop offset="0.52" stop-color="#00A8E3"/>
<stop offset="0.61" stop-color="#00B4F4"/>
<stop offset="0.67" stop-color="#00B8FA"/>
<stop offset="0.76" stop-color="#00B6F7"/>
<stop offset="0.83" stop-color="#01AEEC"/>
<stop offset="0.9" stop-color="#03A2DA"/>
<stop offset="0.97" stop-color="#0691C1"/>
<stop offset="1" stop-color="#0788B3"/>
</linearGradient>
</defs>
</svg>
