<svg width="200" height="95" viewBox="0 0 200 95" fill="none" xmlns="http://www.w3.org/2000/svg">
<g clip-path="url(#clip0)">
<path d="M43.6983 46.4014C43.681 45.7899 43.3857 45.4754 42.8299 45.4579H39.8424C39.1303 45.4929 38.7656 45.8947 38.7482 46.6286V52.0275C38.7656 52.7788 39.165 53.1632 39.9466 53.1982H42.6736C42.9515 53.1982 43.1946 53.0933 43.3857 52.8837C43.5768 52.7264 43.681 52.5167 43.681 52.2547V46.4014H43.6983ZM34.927 45.6326C34.9444 44.2873 35.2396 43.2564 35.8302 42.5575C36.1255 42.2605 36.5076 42.0159 36.9765 41.8062C37.4629 41.5965 37.9145 41.4917 38.3661 41.4917H43.8373C46.2516 41.5092 47.4848 42.8371 47.5195 45.4754V53.6C47.5022 54.5435 47.1374 55.3473 46.4253 56.0287C45.7305 56.7451 44.8968 57.112 43.9241 57.1294H38.7482V62.9827H34.927V45.6326Z" fill="#008AC9"/>
<path d="M54.4498 52.3944C54.4498 52.6216 54.554 52.7963 54.7624 52.9361C54.9361 53.0933 55.1793 53.1807 55.4572 53.1807H58.3926C59.0526 53.1807 59.4 52.9186 59.4173 52.3944V51.2937C59.4173 50.6821 59.07 50.3851 58.3578 50.3851H55.4398C55.0577 50.3851 54.7972 50.455 54.6409 50.5773C54.5019 50.7171 54.4324 50.9966 54.4324 51.416V52.3944H54.4498ZM59.4347 46.2966C59.4521 45.7025 59.1047 45.423 58.4099 45.4404H50.6981V41.4917H59.3826C61.9185 41.5266 63.2038 42.7672 63.2385 45.1958V53.4777C63.2211 54.5261 62.8911 55.3822 62.2832 56.0811C61.6406 56.7975 60.8069 57.1469 59.7821 57.1469H54.5367C51.9834 57.1294 50.6807 55.9588 50.646 53.6175V50.4201C50.6634 47.9739 51.8966 46.7334 54.363 46.6985H59.4521V46.2966" fill="#008AC9"/>
<path d="M73.99 59.0339C74.2853 59.0164 74.5632 58.9116 74.7716 58.7019C74.98 58.5097 75.0843 58.3001 75.0843 58.0729V57.1294H70.1862C69.5436 57.1294 69.0399 57.0421 68.6577 56.8848C68.2582 56.7276 67.8588 56.4655 67.4419 56.0636C67.0598 55.6443 66.7819 55.2075 66.6082 54.7532C66.4345 54.3339 66.3477 53.8097 66.3477 53.1632V41.4917H70.1862V51.9227C70.1862 52.7614 70.5336 53.1807 71.211 53.1807H73.9205C74.2505 53.1807 74.5285 53.0759 74.7542 52.8662C74.98 52.674 75.0843 52.4643 75.0843 52.2022V41.4917H78.8881V58.7369C78.8707 60.0124 78.5407 61.0432 77.9154 61.812C77.2728 62.5808 76.4043 62.9827 75.2927 63.0001H66.3477V59.0339H73.99Z" fill="#008AC9"/>
<path d="M81.8928 53.1807H88.7188C89.3441 53.1632 89.6741 52.9011 89.6915 52.4294V52.0799C89.6915 51.9751 89.6568 51.8703 89.6046 51.748C89.4483 51.4509 89.2573 51.2937 89.0488 51.2937H85.6445C84.6371 51.2762 83.786 50.9268 83.0565 50.2453C82.327 49.6163 81.9623 48.865 81.9276 47.9565V45.0036C81.9623 42.6973 83.2129 41.5266 85.6619 41.4917H93.5821V45.4579H86.8777C86.0961 45.4579 85.6966 45.7025 85.6966 46.1918V46.5761C85.6966 47.0828 86.0961 47.3275 86.9125 47.3275H90.282C91.1852 47.3449 91.9495 47.6944 92.5921 48.3758C93.2348 49.0572 93.5648 49.8609 93.5995 50.8045V53.6874C93.5821 54.4911 93.2 55.3123 92.4879 56.116C92.1405 56.5179 91.7758 56.78 91.4284 56.9372C91.0636 57.077 90.5599 57.1469 89.9173 57.1469H81.9102V53.1807" fill="#008AC9"/>
<path d="M100.148 52.3944C100.148 52.6216 100.252 52.7963 100.46 52.9361C100.634 53.0933 100.86 53.1807 101.155 53.1807H104.108C104.768 53.1807 105.115 52.9186 105.133 52.3944V51.2937C105.133 50.6821 104.785 50.3851 104.073 50.3851H101.155C100.773 50.3851 100.512 50.455 100.356 50.5773C100.217 50.7171 100.148 50.9966 100.148 51.416V52.3944V52.3944ZM105.133 46.2966C105.15 45.7025 104.803 45.423 104.09 45.4404H96.3786V41.4917H105.063C107.599 41.5266 108.884 42.7672 108.919 45.1958V53.4777C108.902 54.5261 108.572 55.3822 107.964 56.0811C107.321 56.7975 106.487 57.1469 105.463 57.1469H100.2C97.6465 57.1294 96.3438 55.9588 96.3091 53.6175V50.4201C96.3265 47.9739 97.5596 46.7334 100.026 46.6985H105.133V46.2966" fill="#008AC9"/>
<path d="M112.045 39.2376C112.063 38.1718 112.462 37.3156 113.227 36.6692C113.973 36.0227 114.946 35.6732 116.162 35.6558H118.594V39.4822H117.117C116.301 39.4997 115.901 39.8841 115.884 40.6528V41.4915H118.594V45.4577H115.884V57.1467H112.045V39.2376Z" fill="#008AC9"/>
<path d="M129.484 46.2267V46.1393C129.484 45.9297 129.397 45.7549 129.241 45.6326C129.067 45.5103 128.841 45.4404 128.581 45.4404H125.906C125.558 45.4404 125.28 45.5453 125.072 45.7375C124.811 45.9122 124.672 46.1568 124.672 46.4538V48.0438L129.484 46.2267ZM124.742 51.8353V52.0799C124.742 52.3944 124.829 52.6565 124.985 52.8312C125.107 53.0584 125.263 53.1807 125.489 53.1807H133.357V57.1469H124.985C124.221 57.1469 123.63 57.077 123.213 56.9372C122.762 56.78 122.345 56.5354 121.98 56.1859C121.563 55.7666 121.268 55.3473 121.129 54.893C120.973 54.4387 120.886 53.8272 120.886 53.0759L120.851 45.1434C120.886 42.7497 122.137 41.5266 124.586 41.4917H129.762C132.141 41.5266 133.357 42.8021 133.392 45.2832V48.4107L124.742 51.8353Z" fill="#008AC9"/>
<path d="M141.503 57.1467C140.93 57.1467 140.391 57.0943 139.905 56.9894C139.401 56.9021 138.898 56.6749 138.394 56.273C137.873 55.8188 137.508 55.2946 137.3 54.718C137.091 54.1589 136.987 53.5124 136.987 52.8135V45.4227C136.97 44.8287 137.022 44.287 137.161 43.8327C137.282 43.3785 137.56 42.9242 137.977 42.4874C138.446 42.0331 138.915 41.7186 139.419 41.5613C139.905 41.439 140.444 41.3691 141.051 41.3691H146.922V42.2952H141.19C140.183 42.2952 139.384 42.5048 138.793 42.9242C138.203 43.3785 137.89 44.1647 137.89 45.2829V52.6737C137.89 53.1979 137.977 53.7046 138.133 54.1938C138.29 54.6656 138.568 55.1024 138.95 55.4693C139.367 55.7838 139.784 55.9935 140.183 56.0634C140.6 56.1507 141.051 56.2032 141.538 56.2032H147.009V57.1292H141.503" fill="#008AC9"/>
<path d="M162.033 47.5545H154.339C153.418 47.5719 152.689 47.869 152.168 48.4106C151.629 48.9697 151.369 49.7385 151.369 50.7169V53.0757C151.369 53.53 151.421 53.9493 151.508 54.3337C151.612 54.7356 151.838 55.085 152.22 55.3821C152.88 55.9412 153.627 56.2033 154.426 56.2033H159.115C161.061 56.1858 162.051 55.1549 162.051 53.0932V47.5545H162.033ZM162.954 52.8835C162.954 53.4776 162.902 54.0017 162.832 54.456C162.711 54.9627 162.45 55.4345 162.068 55.8887C161.269 56.7449 160.262 57.1642 159.081 57.1293H154.495C153.297 57.1293 152.341 56.7798 151.595 56.0635C150.83 55.3646 150.448 54.3861 150.448 53.1281V50.7519C150.483 48.0611 151.82 46.6808 154.443 46.6284H162.068V45.5801C162.068 44.7239 161.825 43.9726 161.321 43.3261C161.009 42.9068 160.644 42.6273 160.227 42.4875C159.81 42.3826 159.324 42.3128 158.803 42.3128H150.483V41.3867H158.369C159.098 41.3867 159.741 41.4391 160.331 41.544C160.626 41.5964 160.904 41.7187 161.165 41.8934C161.443 42.0507 161.686 42.2953 161.912 42.6098C162.624 43.5358 162.971 44.5842 162.954 45.7723V52.8835" fill="#008AC9"/>
<path d="M171.569 42.3128C169.433 42.3477 168.373 43.5183 168.425 45.8247V57.1293H167.505V45.8422C167.47 42.8719 168.859 41.3867 171.725 41.3867H172.75V42.3128H171.569Z" fill="#008AC9"/>
<path d="M187.079 42.3126H179.819C179.298 42.3126 178.829 42.365 178.412 42.4873C177.978 42.5922 177.544 42.8543 177.144 43.2911C176.762 43.6929 176.519 44.0948 176.415 44.4792C176.276 44.8811 176.224 45.3528 176.241 45.9119V53.128C176.241 54.3336 176.589 55.1373 177.283 55.5741C177.631 55.7838 178.013 55.9236 178.43 56.0284C178.846 56.1332 179.333 56.2031 179.854 56.2031H183.032C184.213 56.2031 185.186 55.9236 185.933 55.3819C186.68 54.8578 187.062 53.9667 187.097 52.6912V42.3126H187.079ZM188 52.7611C187.913 55.7489 186.35 57.2165 183.293 57.1466H179.889C179.176 57.1466 178.534 57.0767 177.961 56.9544C177.37 56.7972 176.814 56.4477 176.276 55.8886C175.876 55.3819 175.616 54.8752 175.512 54.3511C175.373 53.8269 175.303 53.2503 175.338 52.6213V45.9119C175.373 42.8892 176.901 41.3691 179.889 41.4041H187.097V36.2847H188.017V52.7611" fill="#008AC9"/>
<path d="M13.6503 40.8975C13.9456 40.7577 14.2582 40.6529 14.5535 40.6005C15.1093 37.9447 17.4541 35.9528 20.2505 35.9528C23.0643 35.9528 25.3917 37.9447 25.9476 40.6005C26.816 40.7577 27.5281 41.1072 28.0666 41.6313C28.0839 41.1246 28.0666 40.6354 28.0145 40.1637C27.6671 36.145 24.3149 33 20.2332 33C16.0299 33 12.6082 36.3547 12.4345 40.5306C12.4171 40.8975 12.3997 41.2644 12.4171 41.6663C12.7645 41.3692 13.164 41.1072 13.6503 40.8975Z" fill="#E3001B"/>
<path d="M24.8009 41.4917H15.4391C14.9875 41.4917 14.5185 41.5965 14.0495 41.8062C13.5806 42.0159 13.1985 42.2605 12.9032 42.5575C12.33 43.2564 12.0174 44.2873 12 45.6326V52.9885C12.0174 54.3339 12.3126 55.3647 12.9032 56.0636C13.2158 56.3607 13.5806 56.6053 14.0495 56.8149C14.5359 57.0246 15.0048 57.1294 15.4391 57.1294H24.8009C27.2152 57.112 28.4484 55.7666 28.4832 53.1283V45.4754C28.4484 42.8371 27.2152 41.5092 24.8009 41.4917Z" fill="#E3001B"/>
</g>
<defs>
<clipPath id="clip0">
<rect width="176" height="30" fill="white" transform="translate(12 33)"/>
</clipPath>
</defs>
</svg>
