<svg width="200" height="95" viewBox="0 0 200 95" fill="none" xmlns="http://www.w3.org/2000/svg">
<path d="M69.3149 11.291H129.685C132.998 11.291 135.709 14.0019 135.709 17.3151V77.6852C135.709 80.9984 132.998 83.7093 129.685 83.7093H69.3149C66.0016 83.7093 63.2908 80.9984 63.2908 77.6852V17.3151C63.2908 13.9588 65.9586 11.291 69.3149 11.291Z" fill="#FDB913"/>
<path d="M129.685 11.2909C132.998 11.2909 135.709 14.0017 135.709 17.315V77.685C135.709 80.9983 132.998 83.7091 129.685 83.7091H69.315C66.0017 83.7091 63.2909 80.9983 63.2909 77.685V17.315C63.2909 14.0017 65.9587 11.2909 69.315 11.2909H129.685ZM129.685 10H69.315C65.2702 10 62 13.2702 62 17.315V77.685C62 81.7298 65.2702 85 69.315 85H129.685C133.73 85 137 81.7298 137 77.685V17.315C137 13.2702 133.73 10 129.685 10Z" fill="white"/>
<path d="M103.738 48.2963V35.3445L107.138 34.5269V36.2481C107.138 36.2481 107.998 34.0106 110.064 33.4942C110.365 33.4082 110.709 33.3651 111.01 33.4512V36.6784C110.408 36.6784 109.805 36.8075 109.246 37.0657C107.998 37.539 107.353 38.6577 107.353 40.2929V47.4357L103.738 48.2963Z" fill="#231F20"/>
<path d="M85.8811 52.5127C85.8811 52.5127 85.3218 51.6951 85.3218 48.7691V42.2717L83.6006 42.702V40.0342L85.3648 39.6039V36.7209L88.9792 35.8604V38.7433L91.518 38.1409V40.8087L88.9792 41.4111C88.9792 41.4111 88.9792 46.7037 88.9792 47.9946C88.9792 50.9636 89.7538 51.566 89.7538 51.566L85.8811 52.5127Z" fill="#231F20"/>
<path d="M91.8623 44.7677C91.8623 42.4441 92.2065 40.7659 92.895 39.4751C93.7126 37.926 95.0895 36.9363 97.1119 36.506C101.071 35.6024 102.491 37.926 102.447 41.0671C102.447 42.1859 102.447 42.7453 102.447 42.7453L95.4768 44.3804V44.5095C95.4768 46.704 95.9501 47.7367 97.327 47.4355C98.5318 47.1773 98.8761 46.4458 98.9621 45.4992C98.9621 45.3701 99.0052 44.9828 99.0052 44.9828L102.275 44.2083C102.275 44.2083 102.275 44.4665 102.275 44.7677C102.232 46.0155 101.888 49.1136 97.37 50.1893C92.9811 51.179 91.8623 48.5542 91.8623 44.7677ZM97.241 38.9157C96.0792 39.1738 95.4768 40.2926 95.4768 42.1859L98.9621 41.3683C98.9621 41.2823 98.9621 41.1102 98.9621 40.809C98.9621 39.389 98.5318 38.6575 97.241 38.9157Z" fill="#231F20"/>
<path d="M123.145 37.1947C123.016 33.236 124.048 30.0949 128.437 29.1052C131.234 28.4598 132.31 29.1913 132.869 29.9228C133.386 30.6112 133.601 31.5149 133.601 32.7627V32.9779L130.158 33.7954V33.3221C130.158 31.8161 129.728 31.2567 128.652 31.5149C127.362 31.8591 126.802 33.0639 126.802 35.5596C126.802 36.4202 126.802 36.5923 126.802 36.7214C126.802 39.2171 127.146 40.3789 128.652 40.0347C129.943 39.7765 130.115 38.6147 130.158 37.625C130.158 37.4529 130.158 36.9796 130.158 36.9796L133.601 36.162C133.601 36.162 133.601 36.4202 133.601 36.6784C133.601 39.9486 131.88 42.014 128.609 42.7885C124.134 43.8212 123.274 41.2395 123.145 37.1947Z" fill="#231F20"/>
<path d="M111.226 42.7452C111.226 39.7331 112.99 38.7865 115.615 37.7107C117.981 36.7211 118.067 36.2478 118.067 35.3872C118.067 34.6557 117.766 34.0533 116.561 34.3545C115.744 34.5266 115.141 35.2151 115.141 36.0326C115.141 36.2478 115.098 36.4629 115.098 36.678L111.742 37.4526C111.699 36.8071 111.785 36.1187 111.957 35.4732C112.473 33.666 114.066 32.4612 116.819 31.8157C120.391 30.9982 121.553 32.5472 121.553 34.9999V40.7228C121.553 43.5197 122.069 43.907 122.069 43.907L118.799 44.6815C118.627 44.2942 118.454 43.907 118.368 43.5197C118.368 43.5197 117.637 45.3269 115.184 45.9293C112.603 46.5317 111.226 44.9397 111.226 42.7452ZM118.067 38.6144C117.508 39.0016 116.948 39.3459 116.303 39.6471C115.227 40.1634 114.711 40.8519 114.711 41.8416C114.711 42.7021 115.27 43.3045 116.26 43.0464C117.336 42.7882 118.067 41.7985 118.067 40.4216V38.6144Z" fill="#231F20"/>
<path d="M67.0344 61.5921C65.8726 61.5921 64.969 60.6455 64.969 59.5267C64.969 59.1394 65.0981 58.7522 65.3132 58.4079L65.3563 58.3649H65.3993L70.3046 57.2031V60.9036H70.2186C69.0998 61.1618 67.7659 61.463 67.5077 61.5491C67.3356 61.5491 67.2065 61.5921 67.0344 61.5921Z" fill="#231F20"/>
<path d="M67.0344 66.3255C65.8726 66.3255 64.969 65.3789 64.969 64.2601C64.969 63.8728 65.0981 63.4856 65.3132 63.1413L65.3563 63.0983H65.3993L70.3046 61.9365V65.637H70.2186C69.0998 65.8952 67.7659 66.1964 67.5077 66.2825C67.3356 66.3255 67.2065 66.3255 67.0344 66.3255Z" fill="#231F20"/>
<path d="M67.0344 71.1014C65.8726 71.1014 64.969 70.1547 64.969 69.036C64.969 68.6487 65.0981 68.2615 65.3132 67.9172L65.3563 67.8742L70.3046 66.7124V70.4129H70.2186C69.0568 70.7141 67.7229 70.9723 67.5077 71.0583C67.3356 71.1014 67.2065 71.1014 67.0344 71.1014Z" fill="#231F20"/>
<path d="M66.4751 57.031V36.2048L70.2617 35.3442V56.1274L66.4751 57.031Z" fill="#231F20"/>
<path d="M75.9413 55.2669C75.9413 53.9761 74.9086 52.9434 73.6178 52.9434C72.3269 52.9434 71.2942 53.9761 71.2942 55.2669V74.7162C71.2942 78.2015 74.1341 81.0415 77.6195 81.0415C79.3837 81.0415 84.246 81.0415 84.246 81.0415V72.9089C84.246 68.4769 84.246 63.9588 84.246 63.8728C84.246 62.8401 83.7296 61.8934 82.8691 61.3341L76.931 57.3323C76.931 57.3323 76.931 66.0243 76.931 66.4545C76.931 66.7127 76.7159 66.9709 76.4147 66.9709C76.1565 66.9709 75.8983 66.7557 75.8983 66.4545C75.9413 66.3255 75.9413 56.4718 75.9413 55.2669Z" fill="#231F20"/>
<path d="M79.0826 40.7659C77.6196 41.1102 76.4147 42.0568 75.7263 43.3907V41.9277L72.2839 42.7022V52.0396C73.4888 51.5663 74.9087 51.7814 75.8984 52.685V46.6609C75.8984 45.1979 76.6299 44.0792 77.6626 43.821C78.4371 43.6489 79.0826 43.9071 79.0826 45.284V54.062L82.697 53.2014V43.9501C82.654 41.7126 81.7934 40.1205 79.0826 40.7659Z" fill="#231F20"/>
<path d="M131.363 27.4267C130.115 27.4267 129.126 26.437 129.126 25.1892C129.126 23.9413 130.115 22.9517 131.363 22.9517C132.611 22.9517 133.601 23.9413 133.601 25.1892C133.558 26.437 132.568 27.4267 131.363 27.4267ZM131.363 23.2529C130.288 23.2529 129.427 24.1134 129.427 25.1892C129.427 26.2649 130.288 27.1255 131.363 27.1255C132.439 27.1255 133.3 26.2649 133.3 25.1892C133.3 24.1565 132.439 23.2529 131.363 23.2529Z" fill="#231F20"/>
<path d="M130.546 23.8982H131.492C131.837 23.8552 132.138 24.1134 132.181 24.4576C132.181 24.5007 132.181 24.5437 132.181 24.5867C132.181 24.931 132.009 25.1891 131.707 25.2752C131.966 25.3182 132.138 25.4473 132.138 25.8346C132.138 26.0067 132.138 26.2218 132.138 26.3939C132.138 26.48 132.181 26.5661 132.267 26.6091H131.793C131.75 26.523 131.707 26.437 131.707 26.3509C131.707 26.1788 131.707 26.0497 131.707 25.8346C131.707 25.5334 131.621 25.4043 131.32 25.4043H130.976V26.5661H130.546V23.8982ZM131.32 25.1031C131.535 25.1031 131.75 24.974 131.75 24.7588C131.75 24.7158 131.75 24.7158 131.75 24.6728C131.75 24.3716 131.621 24.2425 131.32 24.2425H130.933V25.1031H131.32Z" fill="#231F20"/>
</svg>
